<svg width="130" height="130" viewBox="0 0 130 130" fill="none" xmlns="http://www.w3.org/2000/svg">
<g clip-path="url(#clip0_156_655)">
<path d="M44.6875 77.2769C45.305 85.0281 51.4313 91.065 62.4163 91.78V97.5H67.2912V91.7394C78.6662 90.9431 85.3125 84.8656 85.3125 76.0419C85.3125 68.0225 80.2262 63.8869 71.1344 61.7419L67.2912 60.8319V45.2563C72.1662 45.8088 75.27 48.4738 76.0175 52.1625H84.565C83.9475 44.6956 77.545 38.8537 67.2912 38.22V32.5H62.4163V38.3419C52.7069 39.2925 46.085 45.1344 46.085 53.3975C46.085 60.71 51.0087 65.3575 59.1906 67.2669L62.4163 68.0631V84.5894C57.4194 83.8338 54.1125 81.0956 53.365 77.2769H44.6875ZM62.3756 59.6781C57.5819 58.565 54.9819 56.2981 54.9819 52.8856C54.9819 49.0669 57.785 46.2069 62.4163 45.37V59.67H62.3756V59.6781ZM67.9981 69.3713C73.8238 70.72 76.5131 72.9056 76.5131 76.765C76.5131 81.1688 73.1656 84.1913 67.2912 84.7438V69.2087L67.9981 69.3713Z" fill="white"/>
<path d="M65 121.875C49.9158 121.875 35.4494 115.883 24.7833 105.217C14.1172 94.5506 8.125 80.0842 8.125 65C8.125 49.9158 14.1172 35.4494 24.7833 24.7833C35.4494 14.1172 49.9158 8.125 65 8.125C80.0842 8.125 94.5506 14.1172 105.217 24.7833C115.883 35.4494 121.875 49.9158 121.875 65C121.875 80.0842 115.883 94.5506 105.217 105.217C94.5506 115.883 80.0842 121.875 65 121.875ZM65 130C82.2391 130 98.7721 123.152 110.962 110.962C123.152 98.7721 130 82.2391 130 65C130 47.7609 123.152 31.2279 110.962 19.0381C98.7721 6.8482 82.2391 0 65 0C47.7609 0 31.2279 6.8482 19.0381 19.0381C6.8482 31.2279 0 47.7609 0 65C0 82.2391 6.8482 98.7721 19.0381 110.962C31.2279 123.152 47.7609 130 65 130Z" fill="white"/>
<path d="M65 109.688C53.1481 109.688 41.7817 104.979 33.4012 96.5988C25.0206 88.2183 20.3125 76.8519 20.3125 65C20.3125 53.1481 25.0206 41.7817 33.4012 33.4012C41.7817 25.0206 53.1481 20.3125 65 20.3125C76.8519 20.3125 88.2183 25.0206 96.5988 33.4012C104.979 41.7817 109.688 53.1481 109.688 65C109.688 76.8519 104.979 88.2183 96.5988 96.5988C88.2183 104.979 76.8519 109.688 65 109.688ZM65 113.75C71.4019 113.75 77.7412 112.489 83.6558 110.039C89.5704 107.589 94.9446 103.998 99.4715 99.4715C103.998 94.9446 107.589 89.5704 110.039 83.6558C112.489 77.7412 113.75 71.4019 113.75 65C113.75 58.5981 112.489 52.2588 110.039 46.3442C107.589 40.4296 103.998 35.0554 99.4715 30.5285C94.9446 26.0017 89.5704 22.4108 83.6558 19.9609C77.7412 17.511 71.4019 16.25 65 16.25C52.0707 16.25 39.6709 21.3861 30.5285 30.5285C21.3861 39.6709 16.25 52.0707 16.25 65C16.25 77.9293 21.3861 90.3291 30.5285 99.4715C39.6709 108.614 52.0707 113.75 65 113.75Z" fill="white"/>
</g>
<defs>
<clipPath id="clip0_156_655">
<rect width="130" height="130" fill="white"/>
</clipPath>
</defs>
</svg>
