<svg width="124" height="130" viewBox="0 0 124 130" fill="none" xmlns="http://www.w3.org/2000/svg">
<path d="M124 4.06237C124 3.3696 123.82 2.68834 123.476 2.08334C123.133 1.47834 122.638 0.9697 122.038 0.605758C121.438 0.241815 120.754 0.034662 120.05 0.00398543C119.346 -0.0266912 118.645 0.120128 118.015 0.43049L51.8816 32.9305C51.1959 33.2682 50.6193 33.7868 50.2164 34.4282C49.8134 35.0696 49.6 35.8086 49.6 36.5624V62.0749L2.8272 77.3987C2.00449 77.668 1.28879 78.1848 0.781406 78.876C0.274024 79.5672 0.000658413 80.3977 0 81.2499L0 125.937C0 127.015 0.435475 128.048 1.21063 128.81C1.98578 129.572 3.03711 130 4.13333 130H78.5333C79.6296 130 80.6809 129.572 81.456 128.81C82.2312 128.048 82.6667 127.015 82.6667 125.937V113.75H90.9333V125.937C90.9333 127.015 91.3688 128.048 92.144 128.81C92.9191 129.572 93.9704 130 95.0667 130H119.867C120.963 130 122.014 129.572 122.789 128.81C123.565 128.048 124 127.015 124 125.937V4.06237ZM16.5333 89.375H24.8V97.5H16.5333V89.375ZM33.0667 89.375H41.3333V97.5H33.0667V89.375ZM24.8 105.625V113.75H16.5333V105.625H24.8ZM33.0667 105.625H41.3333V113.75H33.0667V105.625ZM107.467 24.3749V32.4999H99.2V24.3749H107.467ZM66.1333 40.6249H74.4V48.7499H66.1333V40.6249ZM74.4 56.8749V64.9999H66.1333V56.8749H74.4ZM66.1333 73.1249H74.4V81.2499H66.1333V73.1249ZM82.6667 73.1249H90.9333V81.2499H82.6667V73.1249ZM74.4 89.375V97.5H66.1333V89.375H74.4ZM82.6667 89.375H90.9333V97.5H82.6667V89.375ZM107.467 73.1249V81.2499H99.2V73.1249H107.467ZM99.2 89.375H107.467V97.5H99.2V89.375ZM82.6667 56.8749H90.9333V64.9999H82.6667V56.8749ZM107.467 56.8749V64.9999H99.2V56.8749H107.467ZM90.9333 40.6249V48.7499H82.6667V40.6249H90.9333ZM99.2 40.6249H107.467V48.7499H99.2V40.6249Z" fill="white"/>
</svg>
