<svg width="130" height="130" viewBox="0 0 130 130" fill="none" xmlns="http://www.w3.org/2000/svg">
<path d="M92.9102 81.761H87.0383L84.9571 79.7542C92.493 71.0133 96.6348 59.8542 96.6266 48.3133C96.6266 38.7579 93.7931 29.417 88.4844 21.4719C83.1757 13.5268 75.6301 7.33437 66.802 3.67765C57.9739 0.0209336 48.2597 -0.935831 38.8879 0.928349C29.516 2.79253 20.9074 7.39392 14.1507 14.1507C7.39392 20.9074 2.79253 29.516 0.928349 38.8879C-0.935831 48.2597 0.0209333 57.9739 3.67765 66.802C7.33437 75.6301 13.5268 83.1757 21.4719 88.4844C29.417 93.7931 38.7579 96.6266 48.3133 96.6266C60.2802 96.6266 71.2807 92.2413 79.7541 84.9571L81.761 87.0383V92.9102L118.925 130L130 118.925L92.9102 81.761ZM48.3133 81.761C29.8056 81.761 14.8657 66.821 14.8657 48.3133C14.8657 29.8056 29.8056 14.8657 48.3133 14.8657C66.8211 14.8657 81.761 29.8056 81.761 48.3133C81.761 66.821 66.8211 81.761 48.3133 81.761Z" fill="white"/>
</svg>
