<svg width="137" height="135" viewBox="0 0 137 135" fill="none" xmlns="http://www.w3.org/2000/svg">
<path d="M0 36.813V122.719C0 129.478 5.11074 135 11.4256 135H17.125V24.5611H11.4256C5.11074 24.5611 0 30.0543 0 36.813ZM125.574 24.5611H119.875V135H125.574C131.863 135 137 129.507 137 122.719V36.813C137 30.0543 131.889 24.5611 125.574 24.5611ZM28.5506 135H108.476V24.5611H28.5506V135ZM57.0744 12.2806H79.8988V18.4065H91.3244V12.2806C91.3244 5.52194 86.2137 0 79.8988 0H57.0744C50.7863 0 45.6488 5.49318 45.6488 12.2806V18.4065H57.0744V12.2806Z" fill="white"/>
</svg>
